<mxfile host="app.diagrams.net" modified="2023-06-02T19:50:43.054Z" agent="Mozilla/5.0 (Windows NT 10.0; Win64; x64) AppleWebKit/537.36 (KHTML, like Gecko) Chrome/114.0.0.0 Safari/537.36" etag="023pwNnpEi_q1Lo5rUXU" version="21.3.7" type="device">
  <diagram name="PÃ¡gina-1" id="s7NfWGgEp5F1IKi0igx6">
    <mxGraphModel dx="794" dy="414" grid="1" gridSize="10" guides="1" tooltips="1" connect="1" arrows="1" fold="1" page="1" pageScale="1" pageWidth="827" pageHeight="1169" math="0" shadow="0">
      <root>
        <mxCell id="0" />
        <mxCell id="1" parent="0" />
        <mxCell id="1pQdkMCjerIGxnZMrtji-26" value="AWS Cloud" style="points=[[0,0],[0.25,0],[0.5,0],[0.75,0],[1,0],[1,0.25],[1,0.5],[1,0.75],[1,1],[0.75,1],[0.5,1],[0.25,1],[0,1],[0,0.75],[0,0.5],[0,0.25]];outlineConnect=0;gradientColor=none;html=1;whiteSpace=wrap;fontSize=12;fontStyle=0;container=1;pointerEvents=0;collapsible=0;recursiveResize=0;shape=mxgraph.aws4.group;grIcon=mxgraph.aws4.group_aws_cloud_alt;strokeColor=#232F3E;fillColor=none;verticalAlign=top;align=left;spacingLeft=30;fontColor=#232F3E;dashed=0;" parent="1" vertex="1">
          <mxGeometry x="50" y="20" width="720" height="350" as="geometry" />
        </mxCell>
        <mxCell id="1pQdkMCjerIGxnZMrtji-28" value="Region us-east-1" style="points=[[0,0],[0.25,0],[0.5,0],[0.75,0],[1,0],[1,0.25],[1,0.5],[1,0.75],[1,1],[0.75,1],[0.5,1],[0.25,1],[0,1],[0,0.75],[0,0.5],[0,0.25]];outlineConnect=0;gradientColor=none;html=1;whiteSpace=wrap;fontSize=12;fontStyle=0;container=1;pointerEvents=0;collapsible=0;recursiveResize=0;shape=mxgraph.aws4.group;grIcon=mxgraph.aws4.group_region;strokeColor=#147EBA;fillColor=none;verticalAlign=top;align=left;spacingLeft=30;fontColor=#147EBA;dashed=1;" parent="1" vertex="1">
          <mxGeometry x="80" y="60" width="680" height="290" as="geometry" />
        </mxCell>
        <mxCell id="1pQdkMCjerIGxnZMrtji-37" value="VPC" style="sketch=0;outlineConnect=0;gradientColor=none;html=1;whiteSpace=wrap;fontSize=12;fontStyle=0;shape=mxgraph.aws4.group;grIcon=mxgraph.aws4.group_vpc;strokeColor=#879196;fillColor=none;verticalAlign=top;align=left;spacingLeft=30;fontColor=#879196;dashed=0;" parent="1pQdkMCjerIGxnZMrtji-28" vertex="1">
          <mxGeometry x="70" y="64.63" width="560" height="210" as="geometry" />
        </mxCell>
        <mxCell id="1pQdkMCjerIGxnZMrtji-9" value="Private subnet" style="points=[[0,0],[0.25,0],[0.5,0],[0.75,0],[1,0],[1,0.25],[1,0.5],[1,0.75],[1,1],[0.75,1],[0.5,1],[0.25,1],[0,1],[0,0.75],[0,0.5],[0,0.25]];outlineConnect=0;gradientColor=none;html=1;whiteSpace=wrap;fontSize=12;fontStyle=0;container=1;pointerEvents=0;collapsible=0;recursiveResize=0;shape=mxgraph.aws4.group;grIcon=mxgraph.aws4.group_security_group;grStroke=0;strokeColor=#147EBA;fillColor=#E6F2F8;verticalAlign=top;align=left;spacingLeft=30;fontColor=#147EBA;dashed=0;" parent="1pQdkMCjerIGxnZMrtji-28" vertex="1">
          <mxGeometry x="333" y="89.63" width="290" height="160" as="geometry" />
        </mxCell>
        <mxCell id="1pQdkMCjerIGxnZMrtji-32" value="" style="endArrow=classic;html=1;rounded=0;" parent="1pQdkMCjerIGxnZMrtji-9" edge="1">
          <mxGeometry width="50" height="50" relative="1" as="geometry">
            <mxPoint x="86" y="73.64" as="sourcePoint" />
            <mxPoint x="137" y="73.37" as="targetPoint" />
            <Array as="points">
              <mxPoint x="127" y="73.98" />
            </Array>
          </mxGeometry>
        </mxCell>
        <mxCell id="_oySgUdEydxPklJAMBG8-7" value="" style="sketch=0;outlineConnect=0;fontColor=#232F3E;gradientColor=none;fillColor=#2E27AD;strokeColor=none;dashed=0;verticalLabelPosition=bottom;verticalAlign=top;align=center;html=1;fontSize=12;fontStyle=0;aspect=fixed;pointerEvents=1;shape=mxgraph.aws4.rds_mysql_instance;" parent="1pQdkMCjerIGxnZMrtji-9" vertex="1">
          <mxGeometry x="187" y="50.370000000000005" width="20" height="20" as="geometry" />
        </mxCell>
        <mxCell id="1pQdkMCjerIGxnZMrtji-8" value="Public subnet" style="points=[[0,0],[0.25,0],[0.5,0],[0.75,0],[1,0],[1,0.25],[1,0.5],[1,0.75],[1,1],[0.75,1],[0.5,1],[0.25,1],[0,1],[0,0.75],[0,0.5],[0,0.25]];outlineConnect=0;gradientColor=none;html=1;whiteSpace=wrap;fontSize=12;fontStyle=0;container=1;pointerEvents=0;collapsible=0;recursiveResize=0;shape=mxgraph.aws4.group;grIcon=mxgraph.aws4.group_security_group;grStroke=0;strokeColor=#248814;fillColor=#E9F3E6;verticalAlign=top;align=left;spacingLeft=30;fontColor=#248814;dashed=0;" parent="1pQdkMCjerIGxnZMrtji-28" vertex="1">
          <mxGeometry x="90" y="89.63" width="170" height="140.75" as="geometry" />
        </mxCell>
        <mxCell id="_oySgUdEydxPklJAMBG8-4" value="&lt;font style=&quot;font-size: 10px;&quot;&gt;Front-end&lt;/font&gt;" style="text;html=1;strokeColor=none;fillColor=none;align=center;verticalAlign=middle;whiteSpace=wrap;rounded=0;" parent="1pQdkMCjerIGxnZMrtji-8" vertex="1">
          <mxGeometry x="70" y="30.370000000000005" width="60" height="30" as="geometry" />
        </mxCell>
        <mxCell id="1pQdkMCjerIGxnZMrtji-1" value="RDB" style="outlineConnect=0;dashed=0;verticalLabelPosition=bottom;verticalAlign=top;align=center;html=1;shape=mxgraph.aws3.rds_db_instance_read_replica;fillColor=#2E73B8;gradientColor=none;" parent="1pQdkMCjerIGxnZMrtji-28" vertex="1">
          <mxGeometry x="490" y="108.33" width="31.25" height="41.67" as="geometry" />
        </mxCell>
        <mxCell id="1pQdkMCjerIGxnZMrtji-2" value="EC2" style="outlineConnect=0;dashed=0;verticalLabelPosition=bottom;verticalAlign=top;align=center;html=1;shape=mxgraph.aws3.ec2;fillColor=#F58534;gradientColor=none;" parent="1pQdkMCjerIGxnZMrtji-28" vertex="1">
          <mxGeometry x="360" y="134.26" width="35.53" height="45.74" as="geometry" />
        </mxCell>
        <mxCell id="_oySgUdEydxPklJAMBG8-3" value="&lt;font style=&quot;font-size: 10px;&quot;&gt;back-end&lt;/font&gt;" style="text;html=1;strokeColor=none;fillColor=none;align=center;verticalAlign=middle;whiteSpace=wrap;rounded=0;" parent="1pQdkMCjerIGxnZMrtji-28" vertex="1">
          <mxGeometry x="390" y="120" width="60" height="30" as="geometry" />
        </mxCell>
        <mxCell id="_oySgUdEydxPklJAMBG8-6" value="&lt;font style=&quot;font-size: 10px;&quot;&gt;MySql&lt;/font&gt;" style="text;html=1;strokeColor=none;fillColor=none;align=center;verticalAlign=middle;whiteSpace=wrap;rounded=0;" parent="1pQdkMCjerIGxnZMrtji-28" vertex="1">
          <mxGeometry x="530" y="119.99999999999999" width="60" height="30" as="geometry" />
        </mxCell>
        <mxCell id="_oySgUdEydxPklJAMBG8-8" value="&lt;span style=&quot;font-size: 10px;&quot;&gt;images&lt;/span&gt;" style="text;html=1;strokeColor=none;fillColor=none;align=center;verticalAlign=middle;whiteSpace=wrap;rounded=0;" parent="1pQdkMCjerIGxnZMrtji-28" vertex="1">
          <mxGeometry x="180" y="190" width="60" height="30" as="geometry" />
        </mxCell>
        <mxCell id="1pQdkMCjerIGxnZMrtji-7" value="Bucket" style="sketch=0;outlineConnect=0;fontColor=#232F3E;gradientColor=none;fillColor=#3F8624;strokeColor=none;dashed=0;verticalLabelPosition=bottom;verticalAlign=top;align=center;html=1;fontSize=12;fontStyle=0;aspect=fixed;pointerEvents=1;shape=mxgraph.aws4.bucket;" parent="1pQdkMCjerIGxnZMrtji-28" vertex="1">
          <mxGeometry x="130" y="132.83" width="35.74" height="37.17" as="geometry" />
        </mxCell>
        <mxCell id="_oySgUdEydxPklJAMBG8-9" value="" style="endArrow=classic;html=1;rounded=0;entryX=0;entryY=0.79;entryDx=0;entryDy=0;entryPerimeter=0;" parent="1pQdkMCjerIGxnZMrtji-28" edge="1" target="1pQdkMCjerIGxnZMrtji-2" source="_oySgUdEydxPklJAMBG8-10">
          <mxGeometry width="50" height="50" relative="1" as="geometry">
            <mxPoint x="510" y="170" as="sourcePoint" />
            <mxPoint x="521.25" y="207.885" as="targetPoint" />
            <Array as="points" />
          </mxGeometry>
        </mxCell>
        <mxCell id="_oySgUdEydxPklJAMBG8-10" value="Bucket" style="sketch=0;outlineConnect=0;fontColor=#232F3E;gradientColor=none;fillColor=#3F8624;strokeColor=none;dashed=0;verticalLabelPosition=bottom;verticalAlign=top;align=center;html=1;fontSize=12;fontStyle=0;aspect=fixed;pointerEvents=1;shape=mxgraph.aws4.bucket;" parent="1pQdkMCjerIGxnZMrtji-28" vertex="1">
          <mxGeometry x="220" y="180" width="26.48" height="27.54" as="geometry" />
        </mxCell>
        <mxCell id="1pQdkMCjerIGxnZMrtji-29" value="" style="endArrow=classic;html=1;rounded=0;" parent="1" source="1pQdkMCjerIGxnZMrtji-7" edge="1">
          <mxGeometry width="50" height="50" relative="1" as="geometry">
            <mxPoint x="340" y="220" as="sourcePoint" />
            <mxPoint x="410" y="220" as="targetPoint" />
          </mxGeometry>
        </mxCell>
        <mxCell id="YbjCh6yieRbRulZVesCt-1" value="" style="endArrow=classic;html=1;rounded=0;" edge="1" parent="1">
          <mxGeometry width="50" height="50" relative="1" as="geometry">
            <mxPoint x="256" y="222" as="sourcePoint" />
            <mxPoint x="310" y="240" as="targetPoint" />
          </mxGeometry>
        </mxCell>
      </root>
    </mxGraphModel>
  </diagram>
</mxfile>
